HIERARCHY
ROOT Hips
{
	OFFSET 0.000000 0.000000 0.000000
	CHANNELS 6 Xposition Yposition Zposition Yrotation Xrotation Zrotation
	JOINT Chest
	{
		OFFSET 0.000000 10.149404 -1.127712
		CHANNELS 6 Xposition Yposition Zposition Yrotation Xrotation Zrotation
		JOINT Chest2
		{
			OFFSET 0.000000 11.268527 0.000000
			CHANNELS 6 Xposition Yposition Zposition Yrotation Xrotation Zrotation
			JOINT Chest3
			{
				OFFSET 0.000000 10.288218 -0.001079
				CHANNELS 6 Xposition Yposition Zposition Yrotation Xrotation Zrotation
				JOINT Chest4
				{
					OFFSET 0.000000 10.276731 -0.001080
					CHANNELS 6 Xposition Yposition Zposition Yrotation Xrotation Zrotation
					JOINT Neck
					{
						OFFSET 0.000000 14.388412 0.000000
						CHANNELS 6 Xposition Yposition Zposition Yrotation Xrotation Zrotation
						JOINT Head
						{
							OFFSET 0.000000 9.567978 0.002321
							CHANNELS 6 Xposition Yposition Zposition Yrotation Xrotation Zrotation
							End Site
							{
								OFFSET 0.000000 17.765411 0.000312
							}
						}
					}
					JOINT RightCollar
					{
						OFFSET -3.132497 8.066086 0.000000
						CHANNELS 6 Xposition Yposition Zposition Yrotation Xrotation Zrotation
						JOINT RightShoulder
						{
							OFFSET -14.645328 0.000000 0.000000
							CHANNELS 6 Xposition Yposition Zposition Yrotation Xrotation Zrotation
							JOINT RightElbow
							{
								OFFSET 0.000000 -31.323030 0.000000
								CHANNELS 6 Xposition Yposition Zposition Yrotation Xrotation Zrotation
								JOINT RightWrist
								{
									OFFSET 0.000000 -25.610935 0.000000
									CHANNELS 6 Xposition Yposition Zposition Yrotation Xrotation Zrotation
									End Site
									{
										OFFSET 0.000000 -19.138220 0.000000
									}
								}
							}
						}
					}
					JOINT LeftCollar
					{
						OFFSET 3.132497 8.066086 0.000000
						CHANNELS 6 Xposition Yposition Zposition Yrotation Xrotation Zrotation
						JOINT LeftShoulder
						{
							OFFSET 14.645328 0.000000 0.000000
							CHANNELS 6 Xposition Yposition Zposition Yrotation Xrotation Zrotation
							JOINT LeftElbow
							{
								OFFSET 0.000000 -31.323030 0.000000
								CHANNELS 6 Xposition Yposition Zposition Yrotation Xrotation Zrotation
								JOINT LeftWrist
								{
									OFFSET 0.000000 -25.610935 0.000000
									CHANNELS 6 Xposition Yposition Zposition Yrotation Xrotation Zrotation
									End Site
									{
										OFFSET 0.000000 -19.138220 0.000000
									}
								}
							}
						}
					}
				}
			}
		}
	}
	JOINT RightHip
	{
		OFFSET -8.349073 0.003782 -0.000420
		CHANNELS 6 Xposition Yposition Zposition Yrotation Xrotation Zrotation
		JOINT RightKnee
		{
			OFFSET 0.000000 -43.250797 -0.000255
			CHANNELS 6 Xposition Yposition Zposition Yrotation Xrotation Zrotation
			JOINT RightAnkle
			{
				OFFSET 0.000000 -42.243721 -0.000429
				CHANNELS 6 Xposition Yposition Zposition Yrotation Xrotation Zrotation
				JOINT RightToe
				{
					OFFSET 0.000000 -7.531273 17.111912
					CHANNELS 6 Xposition Yposition Zposition Yrotation Xrotation Zrotation
					End Site
					{
						OFFSET 0.000000 -1.639313 7.141665
					}
				}
			}
		}
	}
	JOINT LeftHip
	{
		OFFSET 8.349073 0.001501 -0.000167
		CHANNELS 6 Xposition Yposition Zposition Yrotation Xrotation Zrotation
		JOINT LeftKnee
		{
			OFFSET 0.000000 -43.250797 -0.000255
			CHANNELS 6 Xposition Yposition Zposition Yrotation Xrotation Zrotation
			JOINT LeftAnkle
			{
				OFFSET 0.000000 -42.243713 -0.000429
				CHANNELS 6 Xposition Yposition Zposition Yrotation Xrotation Zrotation
				JOINT LeftToe
				{
					OFFSET 0.000000 -7.531273 17.111912
					CHANNELS 6 Xposition Yposition Zposition Yrotation Xrotation Zrotation
					End Site
					{
						OFFSET 0.000000 -1.639313 7.141665
					}
				}
			}
		}
	}
}
MOTION
Frames: 4
Frame Time: 0.008333
9.857157 3.399023 29.921375 -75.691794 31.687454 -271.094525 0.000001 10.149403 -1.127711 4.612575 -18.396350 -6.265264 0.000001 11.268527 -0.000002 6.442753 -14.242679 -3.718647 -0.000000 10.288221 -0.001077 2.679580 3.890366 3.499635 -0.000002 10.276731 -0.001079 -0.000001 -0.000000 -0.000001 -0.000002 14.388416 0.000003 -23.140013 -30.189733 25.693809 -0.000003 9.567982 0.002325 -45.011363 5.983929 -51.808949 -3.132498 8.066089 0.000000 -2.597054 -0.000003 -13.324796 -14.645329 0.000004 -0.000002 -37.519148 52.417081 26.695024 -0.000004 -31.323034 0.000000 -124.834684 7.348799 0.000002 -0.000003 -25.610933 -0.000001 -0.637426 0.000046 14.764104 3.132493 8.066088 0.000000 17.281582 0.000054 26.091567 14.645334 0.000004 0.000001 -29.243909 25.365188 -10.285177 0.000002 -31.323032 0.000005 86.342074 -43.743503 0.000007 0.000001 -25.610941 -0.000003 -22.124424 0.000028 -22.872632 -8.349074 0.003779 -0.000421 -35.783259 15.761041 -19.774417 -0.000005 -43.250801 -0.000246 0.000007 -57.265231 -0.000018 -0.000000 -42.243725 -0.000435 -8.436797 36.433206 28.379267 0.000011 -7.531273 17.111927 0.000003 2.456931 0.000001 8.349073 0.001500 -0.000167 11.679610 8.745144 54.319955 0.000002 -43.250793 -0.000249 -0.000001 -43.913929 0.000009 0.000012 -42.243713 -0.000438 -0.810818 -14.666245 -34.698662 -0.000003 -7.531273 17.111906 -0.000002 0.398277 -0.000003 
10.176804 3.298429 29.545858 -75.571843 31.987852 -271.466169 0.000000 10.149404 -1.127712 4.999393 -18.834253 -6.827146 -0.000001 11.268532 0.000000 6.964866 -14.789820 -3.925019 -0.000001 10.288221 -0.001078 2.867303 3.735492 3.940465 -0.000000 10.276731 -0.001081 -0.000001 -0.000001 0.000001 0.000001 14.388415 -0.000001 -23.224050 -30.523367 25.188892 0.000002 9.567982 0.002317 -45.770040 7.213845 -51.915503 -3.132498 8.066087 0.000002 -2.386781 0.000034 -13.714847 -14.645332 0.000002 -0.000003 -37.137600 53.409914 27.241791 -0.000000 -31.323032 0.000001 -125.222298 8.027202 -0.000003 -0.000001 -25.610935 -0.000002 -0.914959 0.000052 15.404317 3.132499 8.066088 0.000001 18.896157 -0.000021 26.947425 14.645323 -0.000000 0.000002 -25.133418 24.744749 -4.709897 -0.000004 -31.323030 0.000001 68.293395 -39.453201 -0.000013 -0.000007 -25.610929 0.000001 -20.700393 0.000019 -24.027405 -8.349073 0.003783 -0.000419 -35.567862 16.550460 -20.255908 -0.000005 -43.250801 -0.000252 -0.000027 -58.398213 0.000021 0.000007 -42.243717 -0.000422 -8.530651 36.409642 28.619334 -0.000000 -7.531261 17.111908 -0.000006 2.225625 -0.000002 8.349073 0.001502 -0.000167 12.003463 9.422234 54.983583 -0.000004 -43.250790 -0.000256 -0.000006 -45.542632 0.000021 0.000001 -42.243690 -0.000429 -2.662900 -11.221121 -38.058098 -0.000013 -7.531262 17.111912 0.000016 0.783281 0.000006 
10.477674 3.194650 29.163740 -75.281396 32.391100 -271.776888 -0.000001 10.149403 -1.127712 5.259817 -19.245894 -7.252735 0.000001 11.268530 0.000000 7.308012 -15.431405 -3.991032 -0.000000 10.288220 -0.001081 2.965664 3.473566 4.357600 -0.000001 10.276731 -0.001081 0.000001 0.000000 -0.000000 0.000002 14.388417 -0.000001 -23.154577 -31.176928 24.273094 0.000006 9.567990 0.002319 -46.428829 8.910570 -51.739438 -3.132496 8.066094 0.000001 -2.248951 0.000030 -14.148634 -14.645327 -0.000002 -0.000001 -36.650802 54.359959 27.975644 -0.000003 -31.323030 0.000002 -125.599188 8.821398 -0.000001 -0.000003 -25.610937 -0.000001 -1.337137 0.000048 15.929768 3.132493 8.066091 0.000002 20.701012 0.000047 26.966712 14.645329 0.000009 -0.000001 -19.009526 19.755149 2.506729 0.000002 -31.323029 -0.000006 45.671788 -29.591306 0.000001 -0.000007 -25.610939 0.000003 -18.224241 0.000062 -19.525252 -8.349073 0.003785 -0.000421 -35.258096 17.185639 -20.589125 0.000000 -43.250809 -0.000248 0.000010 -59.539128 0.000005 0.000004 -42.243717 -0.000438 -8.397977 36.364504 29.059313 -0.000002 -7.531263 17.111917 0.000000 1.943327 -0.000001 8.349073 0.001499 -0.000167 12.025275 10.948426 55.840393 0.000001 -43.250797 -0.000256 0.000001 -47.497931 -0.000009 0.000001 -42.243710 -0.000436 -4.493441 -7.768659 -39.594685 0.000002 -7.531275 17.111902 0.000008 0.116474 0.000002 
10.780706 3.088139 28.794024 -75.104507 32.932420 -272.107032 -0.000000 10.149407 -1.127711 5.423872 -19.588851 -7.721805 0.000000 11.268531 -0.000001 7.451312 -16.152048 -4.013715 0.000001 10.288219 -0.001078 2.947375 3.078333 4.816750 -0.000000 10.276731 -0.001080 0.000000 0.000001 -0.000001 -0.000002 14.388410 0.000003 -23.122482 -31.238181 24.431479 0.000004 9.567986 0.002324 -46.644281 9.780582 -52.035987 -3.132496 8.066092 0.000002 -1.875917 0.000061 -13.996497 -14.645328 0.000005 0.000002 -36.732843 55.222759 27.817912 0.000000 -31.323032 0.000003 -126.012592 9.545603 0.000001 -0.000003 -25.610929 -0.000002 -1.755560 -0.000040 16.062127 3.132496 8.066082 -0.000002 21.224642 0.000020 26.621813 14.645324 0.000012 -0.000002 -11.235991 0.600380 9.374117 -0.000000 -31.323029 0.000000 15.950399 -5.118200 -0.000002 0.000002 -25.610935 0.000001 -9.300601 0.000011 -10.927793 -8.349073 0.003781 -0.000419 -34.813153 17.771399 -20.975166 0.000005 -43.250786 -0.000251 -0.000018 -60.545426 0.000008 -0.000007 -42.243713 -0.000424 -7.983830 36.225588 29.828222 -0.000003 -7.531246 17.111912 0.000007 1.885628 -0.000001 8.349075 0.001503 -0.000164 12.312726 13.081976 56.800099 0.000002 -43.250809 -0.000254 0.000000 -49.651439 0.000003 0.000004 -42.243687 -0.000426 -5.301893 -4.481533 -39.212772 -0.000005 -7.531270 17.111912 0.000006 -1.264524 0.000001 
